HIERARCHY
ROOT Hips
{
	OFFSET -14.64140 90.27770 -84.91600
	CHANNELS 6 Xposition Yposition Zposition Zrotation Xrotation Yrotation
	JOINT Spine
	{
		OFFSET 0.00000 13.20850 -1.60436
		CHANNELS 3 Zrotation Xrotation Yrotation
		JOINT Spine1
		{
			OFFSET 0.00000 8.61716 0.00000
			CHANNELS 3 Zrotation Xrotation Yrotation
			JOINT Spine2
			{
				OFFSET 0.00000 8.61717 0.00000
				CHANNELS 3 Zrotation Xrotation Yrotation
				JOINT Spine3
				{
					OFFSET 0.00000 8.61717 0.00000
					CHANNELS 3 Zrotation Xrotation Yrotation
					JOINT Neck
					{
						OFFSET 0.00000 11.07920 1.10792
						CHANNELS 3 Zrotation Xrotation Yrotation
						JOINT Neck1
						{
							OFFSET 0.00000 7.08032 0.00000
							CHANNELS 3 Zrotation Xrotation Yrotation
							JOINT Head
							{
								OFFSET 0.00000 7.08031 0.00000
								CHANNELS 3 Zrotation Xrotation Yrotation
								End site
								{
									OFFSET 0.00000 0.00000 0.00000
								}
							}
						}
					}
					JOINT RightShoulder
					{
						OFFSET -0.01000 7.91373 5.19711
						CHANNELS 3 Zrotation Xrotation Yrotation
						JOINT RightArm
						{
							OFFSET -18.41580 0.00000 0.00000
							CHANNELS 3 Zrotation Xrotation Yrotation
							JOINT RightForeArm
							{
								OFFSET -29.11090 0.00000 0.00000
								CHANNELS 3 Zrotation Xrotation Yrotation
								JOINT RightHand
								{
									OFFSET -24.65040 0.00000 0.00000
									CHANNELS 3 Zrotation Xrotation Yrotation
									JOINT RightHandThumb1
									{
										OFFSET -5.35114 -0.85590 3.97906
										CHANNELS 3 Zrotation Xrotation Yrotation
										JOINT RightHandThumb2
										{
											OFFSET -4.52789 0.00000 0.00000
											CHANNELS 3 Zrotation Xrotation Yrotation
											JOINT RightHandThumb3
											{
												OFFSET -2.46976 0.00000 0.00000
												CHANNELS 3 Zrotation Xrotation Yrotation
												End site
												{
													OFFSET 0.00000 0.00000 0.00000
												}
											}
										}
									}
									JOINT RightHandIndex1
									{
										OFFSET -14.26970 0.00000 2.88139
										CHANNELS 3 Zrotation Xrotation Yrotation
										JOINT RightHandIndex2
										{
											OFFSET -5.48836 0.00000 0.00000
											CHANNELS 3 Zrotation Xrotation Yrotation
											JOINT RightHandIndex3
											{
												OFFSET -3.01859 0.00000 0.00000
												CHANNELS 3 Zrotation Xrotation Yrotation
												End site
												{
													OFFSET 0.00000 0.00000 0.00000
												}
											}
										}
									}
									JOINT RightHandMiddle1
									{
										OFFSET -14.26970 0.00000 -0.09147
										CHANNELS 3 Zrotation Xrotation Yrotation
										JOINT RightHandMiddle2
										{
											OFFSET -6.17441 0.00000 0.00000
											CHANNELS 3 Zrotation Xrotation Yrotation
											JOINT RightHandMiddle3
											{
												OFFSET -3.56743 0.00000 0.00000
												CHANNELS 3 Zrotation Xrotation Yrotation
												End site
												{
													OFFSET 0.00000 0.00000 0.00000
												}
											}
										}
									}
									JOINT RightHandRing1
									{
										OFFSET -12.69180 0.00000 -3.06433
										CHANNELS 3 Zrotation Xrotation Yrotation
										JOINT RightHandRing2
										{
											OFFSET -5.62556 0.00000 0.00000
											CHANNELS 3 Zrotation Xrotation Yrotation
											JOINT RightHandRing3
											{
												OFFSET -3.56744 0.00000 0.00000
												CHANNELS 3 Zrotation Xrotation Yrotation
												End site
												{
													OFFSET 0.00000 0.00000 0.00000
												}
											}
										}
									}
									JOINT RightHandPinky1
									{
										OFFSET -11.11390 0.00000 -6.03719
										CHANNELS 3 Zrotation Xrotation Yrotation
										JOINT RightHandPinky2
										{
											OFFSET -4.52789 0.00000 0.00000
											CHANNELS 3 Zrotation Xrotation Yrotation
											JOINT RightHandPinky3
											{
												OFFSET -2.46976 0.00000 0.00000
												CHANNELS 3 Zrotation Xrotation Yrotation
												End site
												{
													OFFSET 0.00000 0.00000 0.00000
												}
											}
										}
									}
								}
							}
						}
					}
					JOINT LeftShoulder
					{
						OFFSET 0.01000 7.91373 5.19711
						CHANNELS 3 Zrotation Xrotation Yrotation
						JOINT LeftArm
						{
							OFFSET 18.41580 0.00000 0.00000
							CHANNELS 3 Zrotation Xrotation Yrotation
							JOINT LeftForeArm
							{
								OFFSET 29.11090 0.00000 0.00000
								CHANNELS 3 Zrotation Xrotation Yrotation
								JOINT LeftHand
								{
									OFFSET 24.65040 0.00000 0.00000
									CHANNELS 3 Zrotation Xrotation Yrotation
									JOINT LeftHandThumb1
									{
										OFFSET 5.35114 -0.85590 3.97906
										CHANNELS 3 Zrotation Xrotation Yrotation
										JOINT LeftHandThumb2
										{
											OFFSET 4.52789 0.00000 0.00000
											CHANNELS 3 Zrotation Xrotation Yrotation
											JOINT LeftHandThumb3
											{
												OFFSET 2.46977 0.00000 0.00000
												CHANNELS 3 Zrotation Xrotation Yrotation
												End site
												{
													OFFSET 0.00000 0.00000 0.00000
												}
											}
										}
									}
									JOINT LeftHandIndex1
									{
										OFFSET 14.26970 0.00000 2.88139
										CHANNELS 3 Zrotation Xrotation Yrotation
										JOINT LeftHandIndex2
										{
											OFFSET 5.48836 0.00000 0.00000
											CHANNELS 3 Zrotation Xrotation Yrotation
											JOINT LeftHandIndex3
											{
												OFFSET 3.01859 0.00000 0.00000
												CHANNELS 3 Zrotation Xrotation Yrotation
												End site
												{
													OFFSET 0.00000 0.00000 0.00000
												}
											}
										}
									}
									JOINT LeftHandMiddle1
									{
										OFFSET 14.26970 0.00000 -0.09147
										CHANNELS 3 Zrotation Xrotation Yrotation
										JOINT LeftHandMiddle2
										{
											OFFSET 6.17440 0.00000 0.00000
											CHANNELS 3 Zrotation Xrotation Yrotation
											JOINT LeftHandMiddle3
											{
												OFFSET 3.56744 0.00000 0.00000
												CHANNELS 3 Zrotation Xrotation Yrotation
												End site
												{
													OFFSET 0.00000 0.00000 0.00000
												}
											}
										}
									}
									JOINT LeftHandRing1
									{
										OFFSET 12.69180 0.00000 -3.06433
										CHANNELS 3 Zrotation Xrotation Yrotation
										JOINT LeftHandRing2
										{
											OFFSET 5.62556 0.00000 0.00000
											CHANNELS 3 Zrotation Xrotation Yrotation
											JOINT LeftHandRing3
											{
												OFFSET 3.56744 0.00000 0.00000
												CHANNELS 3 Zrotation Xrotation Yrotation
												End site
												{
													OFFSET 0.00000 0.00000 0.00000
												}
											}
										}
									}
									JOINT LeftHandPinky1
									{
										OFFSET 11.11390 0.00000 -6.03719
										CHANNELS 3 Zrotation Xrotation Yrotation
										JOINT LeftHandPinky2
										{
											OFFSET 4.52789 0.00000 0.00000
											CHANNELS 3 Zrotation Xrotation Yrotation
											JOINT LeftHandPinky3
											{
												OFFSET 2.46976 0.00000 0.00000
												CHANNELS 3 Zrotation Xrotation Yrotation
												End site
												{
													OFFSET 0.00000 0.00000 0.00000
												}
											}
										}
									}
								}
							}
						}
					}
					JOINT pCube4
					{
						OFFSET 0.00000 10.91090 1.10792
						CHANNELS 3 Zrotation Xrotation Yrotation
						End site
						{
							OFFSET 0.00000 0.00000 0.00000
						}
					}
				}
			}
		}
	}
	JOINT RightUpLeg
	{
		OFFSET -9.98441 0.00000 0.00000
		CHANNELS 3 Zrotation Xrotation Yrotation
		JOINT RightLeg
		{
			OFFSET 0.00000 -42.11790 0.00000
			CHANNELS 3 Zrotation Xrotation Yrotation
			JOINT RightFoot
			{
				OFFSET 0.00000 -45.00020 -0.00001
				CHANNELS 3 Zrotation Xrotation Yrotation
				JOINT RightForeFoot
				{
					OFFSET 0.00000 -3.74820 0.00000
					CHANNELS 3 Zrotation Xrotation Yrotation
					JOINT RightToeBase
					{
						OFFSET 0.00000 0.06325 14.43120
						CHANNELS 3 Zrotation Xrotation Yrotation
						End site
						{
							OFFSET 0.00000 0.00000 0.00000
						}
					}
				}
			}
		}
	}
	JOINT LeftUpLeg
	{
		OFFSET 9.98441 0.00000 0.00000
		CHANNELS 3 Zrotation Xrotation Yrotation
		JOINT LeftLeg
		{
			OFFSET 0.00000 -42.11800 0.00000
			CHANNELS 3 Zrotation Xrotation Yrotation
			JOINT LeftFoot
			{
				OFFSET 0.00000 -45.00070 0.00000
				CHANNELS 3 Zrotation Xrotation Yrotation
				JOINT LeftForeFoot
				{
					OFFSET 0.00000 -3.74824 0.00000
					CHANNELS 3 Zrotation Xrotation Yrotation
					JOINT LeftToeBase
					{
						OFFSET 0.00000 0.06325 14.43110
						CHANNELS 3 Zrotation Xrotation Yrotation
						End site
						{
							OFFSET 0.00000 0.00000 0.00000
						}
					}
				}
			}
		}
	}
}
MOTION
Frames: 4
Frame Time: 0.050000
0.0052610348801153135 0.04903167529772073 0.022639527602407467 0.043298562950806745 0.031072296928290905 -0.011072153068926047 5.7671588929435655 1.9750693328543174 -2.429458465534158 -0.6860093315338284 3.5165733433480493 0.3978281594513984 -0.47605871422801993 -1.5456117346081895 0.3790676107686531 -0.7376391886898808 -0.5664604544515406 -0.32208660894283475 -0.392375958199365 15.075478277299567 -0.1960467223295943 0.40640067900391025 0.8452031805998896 0.981214872250957 0.4492050503341633 -14.944879431961681 0.07149848777443905 -12.906885811661903 4.146967212879355 -18.244911155685767 81.04731700502491 -6.664865360256778 22.054987864233404 34.006673336227315 12.339794036252705 95.04979643190052 14.519577981342094 -0.5605507433742423 -6.2926305316465525 4.479991244671025 -0.14397118988120888 -1.5897292171503854 0.01854016090840237 -0.02112507259936574 -56.23931784516327 -0.032613773494512825 -0.04841692578408652 -56.27853517893266 -38.80976332529603 0.022112491507704602 -0.0013059880855861134 -0.012574174703385134 0.023259582278097848 -0.013785604829864174 -0.00951383454908715 0.033542424910367165 0.02530357160438157 -36.66185641264188 -0.04173664893791718 0.007012356756996992 -0.022173926386000183 -0.02002451028959136 -0.039595572129018014 -0.04503005082744456 0.04603151886556531 -0.0019740122584198045 -19.746727693736304 -0.014389103940383306 -0.008078223710736257 -0.031236185827200363 -0.016693216910959294 -0.04560374048427784 0.012314321378893146 0.025486111422581424 -0.04308626541971663 24.102308322860615 0.048070269864607135 0.023107350820100958 28.874467606785725 0.020609743248358178 0.0413394524150149 28.895320527682507 -0.020491557676753803 -0.03098300631520404 14.526198717922147 3.1388193293059765 15.170931341718706 -71.73884862430782 6.634853823630802 -29.900518111620055 -39.66290704687817 16.787433777285923 -92.22722333636479 -24.679730936855524 -7.767708378963621 4.9470759310687304 -0.5222002089923488 0.06359926893994039 -8.143999629153276 -0.010118047917739015 0.0024130803423661772 44.57885814488683 0.018335830150007768 -0.00014295882362912543 44.55007963674895 12.444578007001741 0.0013145516214653245 -0.03896191827680578 -0.010312157552337118 -0.004502179450489509 -0.04193102055781745 -0.004282530761674874 -0.0005575257260748149 -0.04746650906345981 11.075477732298301 -0.03787698922291673 -0.03695149849911318 -0.003426845080016684 -0.048794940765066894 -0.0022162262720332635 -0.011541485082537238 0.015440456555857766 -0.021682081708903466 4.745655668480817 -0.032386750124411536 -0.027004671634682568 0.0007006459351788392 -0.03468746219875927 0.0396833651291449 0.0172253497466549 -0.011333131501302227 -0.014652608212852386 -5.60246047858782 0.00299911794037345 0.02329203445773249 -6.715786358235496 -0.006635646911234038 0.0450945432558727 -6.742504758680458 0.0451992040959786 0.0012196593219400088 -0.009801482538541515 -0.015663591673818693 -0.008549031535217222 8.027128618393924 3.4599315934184225 -19.205236002151715 0.03428772568572369 10.363485047920365 0.027672381379305992 -5.5960599517532295 -15.615142563244728 3.1673859454877653 -0.019604139500248217 0.00784452167427785 -0.007402582014026311 0.0051816066454490155 4.720126161123916 0.018354940883676923 12.451380596325263 -8.21640477831894 6.896919799588367 -0.01882718308696343 46.3784077010919 -0.028526848373939782 -4.3058968700157845 -14.791485600274179 -3.8198011290731193 -0.03627839240857934 -0.03307101135734937 -0.031017356096485274 0.005929361795026756 -10.70578135404363 -0.019189982807146018 
0.04131399440016835 -0.033312317824265344 -0.008590392272256865 -0.012961074116006652 -0.04029146662734795 -0.046841439299461135 5.833659868385414 2.0374998381901217 -2.4530247328178625 -0.6419096980315294 3.4711428050126645 0.3801151888938563 -0.4708738284596892 -1.532196556348562 0.39807707687546307 -0.7367337013941835 -0.5891449993134076 -0.311966090244811 -0.3462241426970609 15.075946387492575 -0.22351731116286924 0.3857465059354413 0.816414196367814 1.0482227351589186 0.39311959013677206 -15.020587331594285 0.07940210711749504 -12.969275778606226 4.110469000217371 -18.145588885141056 81.64908472040355 -5.2041916180400145 22.5268625537915 35.61171564873205 12.240817742110103 95.56288938765759 15.118190551597388 -0.5720671433559185 -6.988135249029197 4.504333052526839 -0.15981899858791412 -1.571756191310987 0.020433735946868228 0.04742489305272832 -56.24301701467193 -0.019689600440427578 -0.011091627110848962 -56.18855427913784 -38.78775771945582 -0.009459324313446591 -0.02678569498838047 -0.0032459459119293693 -0.036277704747711324 0.005853955008439747 0.03767227261738711 -0.0198159887338037 -0.016169673769642703 -36.704199160264615 -0.01802814585517789 -0.0028903188008492014 0.006053833087790851 0.03408517702548283 -0.01891301179680145 0.009374213241804865 -0.04166396492121425 0.004678786050510816 -19.747947098856336 0.006359667705609498 -0.009288821707617901 0.0019713332387009327 -0.017788306463582558 0.016009848659740904 0.010051730788700067 -0.0496091806775551 0.035676267851481085 24.039096290064112 0.008300678593289656 0.049114435122919645 28.89525926515538 0.007598481477917043 -0.03190260138525803 28.89662714727278 -0.010898404174978867 0.016168221343088644 14.497136114871479 3.183645457530414 15.057192452550133 -72.07159519052783 7.738188914213658 -30.18924308879954 -40.37402186442876 16.620310468166792 -92.0991000885913 -25.837313327537455 -8.833781956104742 6.033886031616447 -0.4467230296536388 0.06615395313007028 -8.160408798218755 -0.006331208193769643 0.020961230431777583 44.53049405412143 0.04312302955174112 -0.04264759039103034 44.55248643255436 12.427485144590559 -0.011725110793391275 -0.004174157794017289 -0.009969227686920157 0.03169007095047645 0.04362306450258218 0.014297826177310607 -0.02339307238913648 0.032077562964698714 11.130894581236927 0.04312608706985466 0.004966549108460072 0.014046259380717874 1.6361897781320485e-05 -0.02250248857946611 0.03610080009746145 -0.02439554343949426 0.02886033945617482 4.808226779834085 0.004192344648668731 -0.01786631121967153 -0.028166191958143624 0.004733954289730554 0.013974670670116606 0.04005596645907294 0.00964602840791133 -0.030228492972222108 -5.557622276989962 0.009550087756930834 0.045938418565972645 -6.686317725537962 -0.023528976091811 -0.004255807457578686 -6.674843433208862 0.04453232449189037 -0.02831618127932149 0.012348668380303325 -0.02539279107188664 -0.013487190451601924 8.01988034081349 3.4810166245625975 -19.25117529331434 -0.017091406397629003 10.403538816333555 -0.012011588708275917 -5.580705502375061 -15.666562731033087 3.1950276757481917 0.004464500109885376 -0.02495413461612798 -0.02742912009908014 0.03321459233240914 4.730265442810276 -0.035550454558449594 12.502277759114058 -8.237683361347479 6.908857157099464 0.0038721841352027113 46.35650404166885 -0.023389162949271153 -4.367343600903815 -14.707291180072607 -3.80087840250524 -0.04173871784901591 0.02567426894180847 -0.01197563022318297 0.028044556668626677 -10.763772839856879 0.042362116146280174 
0.010346504127821654 0.015553687375677902 -0.02387362320577658 -0.010143749235294073 0.04600319080194775 0.021743014268707197 5.8860270771514465 1.9972213873567088 -2.3984287855066593 -0.7086114779580699 3.4459423589949965 0.4047416278794807 -0.49854223763976185 -1.5360302130020436 0.3118405956555245 -0.7347429408136479 -0.5416457472017974 -0.2674538361561259 -0.3619899689893359 15.04957207317133 -0.25989270035668566 0.37837245590902524 0.8263909194193071 0.9419783436654184 0.3931121181099564 -15.062583710184919 0.06415352045291106 -12.865270655207349 4.170557925067686 -18.008773927603137 82.06067072990778 -3.0784421042038947 22.318813496987584 36.66338954897482 12.100617824671266 95.72903487408966 15.72890368301718 -0.5970235353545171 -7.492504103298909 4.50652366024826 -0.1492166948944779 -1.601567271935568 0.04959971421199795 0.037293342914879825 -56.251753985431165 0.008749724435968196 0.008318850379453215 -56.19080039079989 -38.76648271389605 0.03921501434581206 0.01054224788093604 -0.02584161317071627 0.008055006387752412 -0.02090606553757474 0.033528017840213746 0.0026103958703695236 0.024790764502092798 -36.70564865766649 0.03623665111606902 0.013530550453185396 0.046925856187400236 -0.014949918179443465 -0.004621561581883071 -0.04834396968831879 -0.00144404911742157 0.03634277900114073 -19.719615070321645 0.0005976077636272075 -0.037334846228693874 0.027765757382305 0.04378284727423926 0.029303825190229633 0.019927756543001468 -0.027430411744413522 -0.04821636283691037 24.028646316367755 -0.045844003081572146 -0.021810476167440026 28.902289073248465 0.024486601889153466 -0.004466923972703667 28.83131137004884 0.025387880368243555 0.02763403359012206 14.471421273111883 3.138424181348589 14.930346586576569 -72.22407266019653 9.333566949336468 -30.270700313015972 -40.58029774753987 16.472135044041195 -91.54765184797947 -26.769269438136963 -9.800335739778799 7.0803393890591675 -0.4489400713554242 0.036014521665893674 -8.15175078640308 0.035642054886849246 0.0003608387255923133 44.59489581433613 0.03027918929291482 -0.02664072189154148 44.55030114006879 12.459320259651756 -0.023521892216796243 0.008467566472988271 -0.016237453098658528 -0.04324049229327694 -0.019973540544978016 0.009080715871384903 0.03541268511185863 -0.027556747241839062 11.10311795793414 -0.03716703186416724 -0.008745294967527153 -0.025034212564432008 -0.03556610689842175 -0.02791980585051246 0.04191904253941054 0.03130939623996583 -0.0020500757485874574 4.778190389620234 -0.03114779105566231 -0.03122694474064319 0.005334918900384461 0.014090118152903765 -0.03350352530274227 0.04678934135201412 0.005528862826196472 -0.025900583669590915 -5.608102025258749 -0.03758374738995669 0.024182250865513732 -6.685978052156387 0.016008169006611263 0.00011984610793416842 -6.67834111045938 -0.03442217160348428 -0.004351687355834484 0.035652629362242824 -0.024582155438978827 -0.010721735597486619 8.008075503049097 3.457705490991171 -19.218943994635588 0.012721764561680067 10.367014567325246 -0.013683919213217637 -5.582595520942539 -15.705968610171185 3.1976246743061365 -0.009514169121966723 0.012150989830511352 0.03752243589307754 0.039410336391208195 4.732990378313133 0.004257382462471088 12.485454353391985 -8.205897240135599 6.836768009980869 0.02479165682339044 46.38693796863238 0.04422653216343757 -4.328215211823859 -14.780769452586922 -3.839016975923698 -0.020908656116443814 -0.021020401803454502 0.031148180492153288 0.008259504213288289 -10.72949206398544 0.005490578912657309 
0.0031847534029426903 0.021688439169569182 0.04114534652138322 0.021498703532870794 0.019413005521437775 0.007947287202529593 5.972137625306219 1.9921634422313184 -2.4591410529031625 -0.6376650191958412 3.438168314799113 0.3246844561517673 -0.4699014745624271 -1.5378538574626495 0.2784138104580349 -0.7600682797068306 -0.5274839675547469 -0.29550866974361684 -0.36538845117504637 14.896212114435112 -0.29309165234598733 0.36952659901493956 0.7874671840415203 0.8898067158355055 0.4689681049285061 -15.052206258418158 0.10291113872222449 -12.720548532069442 4.15228986415081 -17.869598890938732 82.32977991357252 -1.4235445856509399 22.18805000974902 37.45674695807895 11.84340869645824 95.79245695692555 16.29745017058134 -0.6042125901946438 -8.0398940008779 4.550628499261855 -0.15294126555457355 -1.5922185664849409 0.03972153461388624 -0.03165065097372338 -56.20001314392575 0.049484163550396774 -0.04582290407417522 -56.276225223337825 -38.79390313935996 0.00919984947821603 0.01939078178121078 0.0010259195955447267 0.00975883590215779 0.039171666396013834 -0.014063748166275904 -0.02446103332347874 0.009680491809041942 -36.73796806805459 -0.03142619622999949 0.0383653754601164 0.035548870036098836 -0.010666141151393548 0.015662830103218846 0.04200511413367499 -0.015438738699309808 0.006203653789801993 -19.724319861272825 -0.024753560557096342 0.04493839984050361 -0.00845214406865991 0.013392180353069697 0.012352776615971327 0.001427619921769096 0.011993873285053578 0.011826186200067411 24.039329246597717 0.009339104347764563 0.0023794282388221264 28.89809062038625 0.014164305461462466 0.00983217794681063 28.90003029389214 -0.02310682429254634 -0.03517316691132987 14.45463318161785 3.201040903207561 14.86274112111204 -72.31461646622977 10.496960560248658 -30.59728334733589 -41.43629921962179 16.166479192738667 -91.51468823069892 -27.612388930905574 -10.449839138100732 7.742769105602738 -0.4493416725816472 0.0356823433737311 -8.090561755047066 0.019466042606087895 -0.030312879641757717 44.56984374773425 0.02522587210506748 -0.03979278397694456 44.55685302538162 12.443793990591091 -0.0015459318871449525 0.006081056964371855 0.049295598906560815 0.010834569679234667 -0.010215144952343684 -0.029089068725185175 -0.0003359820269714144 -0.022481578998166687 11.07898296278811 0.022749220464543696 0.03913317040852443 -0.03264543040136208 -0.007464852389896852 -0.0014639339501889392 -0.026956725029452563 0.014446012337171663 -0.0033877244643712584 4.739056596468987 0.015698184643373223 -0.03585691830972924 -0.018469069613183103 0.039542888834567295 0.044408848318076614 -0.02847199599013943 -0.013557099691491117 -0.027326413834300144 -5.582272608389782 0.004266379467127163 0.04426724981803582 -6.749442137739861 -0.018978544189589153 -0.005066671571715912 -6.732411443317421 0.004059054110731809 0.014042141651330324 -0.04788713082603366 0.011869481446726985 0.012874557618626605 8.088022883695793 3.517606735297831 -19.20932320641858 -0.007271886096424305 10.406023860206835 0.022758957609287755 -5.607742381800391 -15.635342853104051 3.190024197889205 0.04642082769840575 0.031985977338072805 0.012545573603978533 0.02964315624997222 4.6791540069470505 -0.009760710643107967 12.456515345610097 -8.244018803527613 6.89080342927615 0.014620837777883458 46.359737918360935 -0.04135590788910154 -4.316497708201227 -14.707042502507324 -3.82869250430488 -0.0020534800592486553 0.01478131257756819 -0.007757743765400265 -0.04681817278538554 -10.720406159287855 -0.02347794624625668 
